<svg id="svg" version="1.1" xmlns="http://www.w3.org/2000/svg" style="display: block;" viewBox="0 0 420 420"><path d="M0,0 L420,0 L420,420 L0,420 Z " transform="translate(0,0)" style="fill: #000000;"/><path d="M0,0 L20,0 L20,1 L25,1 L25,2 L29,2 L29,3 L33,3 L33,4 L38,4 L38,5 L44,5 L44,6 L52,6 L52,7 L58,7 L58,8 L62,8 L62,9 L66,9 L66,10 L68,10 L68,11 L71,11 L71,12 L73,12 L73,13 L75,13 L75,14 L77,14 L77,15 L78,15 L78,16 L80,16 L80,17 L81,17 L81,18 L83,18 L83,19 L84,19 L84,20 L86,20 L86,21 L87,21 L87,22 L88,22 L88,23 L89,23 L89,24 L91,24 L91,25 L92,25 L92,26 L93,26 L93,27 L95,27 L95,28 L96,28 L96,29 L97,29 L97,30 L98,30 L98,31 L100,31 L100,32 L101,32 L101,33 L103,33 L103,34 L104,34 L104,35 L105,35 L105,36 L107,36 L107,37 L108,37 L108,38 L110,38 L110,39 L111,39 L111,40 L113,40 L113,41 L114,41 L114,42 L115,42 L115,43 L116,43 L116,44 L117,44 L117,45 L119,45 L119,46 L120,46 L120,47 L121,47 L121,48 L122,48 L122,49 L123,49 L123,50 L124,50 L124,51 L125,51 L125,52 L126,52 L126,53 L127,53 L127,54 L128,54 L128,55 L129,55 L129,57 L130,57 L130,58 L131,58 L131,59 L132,59 L132,61 L133,61 L133,63 L134,63 L134,64 L135,64 L135,66 L136,66 L136,68 L137,68 L137,70 L138,70 L138,71 L139,71 L139,73 L140,73 L140,74 L141,74 L141,75 L142,75 L142,77 L143,77 L143,78 L144,78 L144,79 L145,79 L145,80 L146,80 L146,82 L147,82 L147,83 L148,83 L148,84 L149,84 L149,86 L150,86 L150,88 L151,88 L151,89 L152,89 L152,91 L153,91 L153,94 L154,94 L154,97 L155,97 L155,100 L156,100 L156,104 L157,104 L157,109 L158,109 L158,114 L159,114 L159,119 L160,119 L160,123 L161,123 L161,128 L162,128 L162,134 L163,134 L163,142 L164,142 L164,150 L163,150 L163,161 L162,161 L162,189 L161,189 L161,193 L160,193 L160,196 L159,196 L159,199 L158,199 L158,201 L157,201 L157,203 L156,203 L156,204 L155,204 L155,206 L154,206 L154,207 L153,207 L153,209 L152,209 L152,210 L151,210 L151,211 L150,211 L150,212 L149,212 L149,213 L148,213 L148,214 L147,214 L147,215 L146,215 L146,217 L145,217 L145,220 L143,220 L143,225 L142,225 L142,227 L141,227 L141,229 L139,229 L139,230 L137,230 L137,231 L135,231 L135,232 L134,232 L134,233 L133,233 L133,234 L132,234 L132,235 L131,235 L131,236 L130,236 L130,237 L129,237 L129,238 L127,238 L127,239 L125,239 L125,240 L124,240 L124,241 L123,241 L123,240 L122,240 L122,241 L121,241 L121,242 L120,242 L120,243 L119,243 L119,244 L118,244 L118,245 L117,245 L117,246 L116,246 L116,247 L115,247 L115,248 L114,248 L114,249 L113,249 L113,247 L112,247 L112,248 L111,248 L111,249 L109,249 L109,250 L108,250 L108,251 L105,251 L105,252 L103,252 L103,253 L101,253 L101,254 L100,254 L100,255 L99,255 L99,256 L97,256 L97,255 L98,255 L98,252 L97,252 L97,253 L96,253 L96,255 L89,255 L89,256 L88,256 L88,258 L87,258 L87,261 L86,261 L86,264 L85,264 L85,268 L84,268 L84,271 L83,271 L83,273 L82,273 L82,276 L81,276 L81,278 L80,278 L80,280 L79,280 L79,281 L78,281 L78,283 L77,283 L77,285 L76,285 L76,286 L75,286 L75,287 L74,287 L74,289 L73,289 L73,290 L72,290 L72,291 L71,291 L71,292 L70,292 L70,294 L71,294 L71,297 L72,297 L72,300 L73,300 L73,304 L74,304 L74,308 L75,308 L75,309 L76,309 L76,310 L77,310 L77,311 L78,311 L78,312 L79,312 L79,313 L80,313 L80,315 L81,315 L81,316 L82,316 L82,318 L83,318 L83,320 L84,320 L84,321 L85,321 L85,324 L86,324 L86,326 L88,326 L88,327 L90,327 L90,328 L91,328 L91,329 L93,329 L93,330 L94,330 L94,331 L96,331 L96,332 L97,332 L97,333 L99,333 L99,334 L100,334 L100,335 L101,335 L101,336 L103,336 L103,337 L104,337 L104,338 L105,338 L105,339 L106,339 L106,340 L107,340 L107,341 L108,341 L108,342 L110,342 L110,343 L111,343 L111,344 L112,344 L112,345 L113,345 L113,346 L114,346 L114,347 L115,347 L115,349 L116,349 L116,350 L117,350 L117,351 L118,351 L118,352 L119,352 L119,354 L120,354 L120,355 L121,355 L121,357 L122,357 L122,359 L123,359 L123,361 L124,361 L124,363 L125,363 L125,366 L126,366 L126,369 L127,369 L127,372 L128,372 L128,376 L129,376 L129,380 L130,380 L130,384 L131,384 L131,390 L132,390 L132,397 L133,397 L133,404 L134,404 L134,410 L-127,410 L-127,407 L-126,407 L-126,405 L-125,405 L-125,402 L-124,402 L-124,399 L-123,399 L-123,397 L-122,397 L-122,394 L-121,394 L-121,392 L-120,392 L-120,389 L-119,389 L-119,386 L-118,386 L-118,384 L-117,384 L-117,381 L-116,381 L-116,379 L-115,379 L-115,376 L-114,376 L-114,374 L-113,374 L-113,371 L-112,371 L-112,369 L-111,369 L-111,367 L-110,367 L-110,365 L-109,365 L-109,363 L-108,363 L-108,362 L-107,362 L-107,360 L-106,360 L-106,359 L-105,359 L-105,358 L-104,358 L-104,357 L-103,357 L-103,356 L-102,356 L-102,355 L-101,355 L-101,354 L-100,354 L-100,353 L-99,353 L-99,352 L-98,352 L-98,351 L-97,351 L-97,350 L-96,350 L-96,349 L-95,349 L-95,348 L-94,348 L-94,347 L-93,347 L-93,346 L-92,346 L-92,345 L-91,345 L-91,344 L-89,344 L-89,343 L-88,343 L-88,342 L-87,342 L-87,341 L-86,341 L-86,340 L-84,340 L-84,339 L-83,339 L-83,338 L-81,338 L-81,337 L-80,337 L-80,336 L-78,336 L-78,335 L-77,335 L-77,334 L-75,334 L-75,333 L-73,333 L-73,332 L-71,332 L-71,331 L-69,331 L-69,330 L-67,330 L-67,329 L-65,329 L-65,328 L-62,328 L-62,327 L-60,327 L-60,326 L-57,326 L-57,325 L-54,325 L-54,324 L-52,324 L-52,323 L-49,323 L-49,322 L-46,322 L-46,321 L-44,321 L-44,320 L-41,320 L-41,319 L-38,319 L-38,318 L-35,318 L-35,319 L-34,319 L-34,321 L-33,321 L-33,322 L-31,322 L-31,323 L-30,323 L-30,324 L-28,324 L-28,325 L-26,325 L-26,326 L-23,326 L-23,327 L-20,327 L-20,328 L-17,328 L-17,329 L-13,329 L-13,330 L-9,330 L-9,331 L-2,331 L-2,332 L21,332 L21,331 L23,331 L23,328 L24,328 L24,324 L25,324 L25,321 L23,321 L23,322 L20,322 L20,323 L15,323 L15,324 L1,324 L1,323 L-4,323 L-4,322 L-8,322 L-8,321 L-12,321 L-12,320 L-15,320 L-15,319 L-17,319 L-17,318 L-20,318 L-20,312 L-19,312 L-19,310 L-21,310 L-21,309 L-24,309 L-24,308 L-26,308 L-26,307 L-28,307 L-28,306 L-31,306 L-31,305 L-33,305 L-33,304 L-35,304 L-35,303 L-36,303 L-36,302 L-38,302 L-38,301 L-40,301 L-40,300 L-42,300 L-42,299 L-43,299 L-43,298 L-44,298 L-44,297 L-46,297 L-46,296 L-47,296 L-47,295 L-48,295 L-48,294 L-49,294 L-49,293 L-50,293 L-50,292 L-51,292 L-51,291 L-52,291 L-52,290 L-53,290 L-53,289 L-54,289 L-54,288 L-55,288 L-55,286 L-56,286 L-56,285 L-57,285 L-57,283 L-58,283 L-58,282 L-59,282 L-59,280 L-60,280 L-60,278 L-61,278 L-61,276 L-62,276 L-62,274 L-63,274 L-63,271 L-64,271 L-64,268 L-65,268 L-65,266 L-66,266 L-66,263 L-67,263 L-67,260 L-68,260 L-68,258 L-69,258 L-69,256 L-71,256 L-71,255 L-77,255 L-77,254 L-78,254 L-78,253 L-79,253 L-79,252 L-80,252 L-80,250 L-81,250 L-81,248 L-82,248 L-82,246 L-83,246 L-83,244 L-84,244 L-84,241 L-85,241 L-85,239 L-86,239 L-86,237 L-84,237 L-84,236 L-82,236 L-82,235 L-80,235 L-80,234 L-79,234 L-79,232 L-78,232 L-78,226 L-77,226 L-77,225 L-75,225 L-75,232 L-74,232 L-74,235 L-73,235 L-73,236 L-72,236 L-72,204 L-71,204 L-71,200 L-70,200 L-70,198 L-69,198 L-69,194 L-68,194 L-68,190 L-67,190 L-67,187 L-66,187 L-66,184 L-65,184 L-65,183 L-64,183 L-64,182 L-63,182 L-63,180 L-62,180 L-62,179 L-61,179 L-61,178 L-59,178 L-59,177 L-58,177 L-58,176 L-57,176 L-57,175 L-56,175 L-56,174 L-54,174 L-54,173 L-52,173 L-52,172 L-50,172 L-50,171 L-48,171 L-48,170 L-47,170 L-47,169 L-43,169 L-43,168 L-40,168 L-40,167 L-35,167 L-35,166 L-29,166 L-29,165 L-7,165 L-7,163 L-6,163 L-6,161 L-5,161 L-5,160 L-4,160 L-4,159 L-3,159 L-3,158 L3,158 L3,157 L0,157 L0,156 L1,156 L1,155 L2,155 L2,154 L3,154 L3,153 L4,153 L4,154 L5,154 L5,153 L10,153 L10,154 L12,154 L12,153 L13,153 L13,152 L23,152 L23,153 L35,153 L35,155 L60,155 L60,154 L62,154 L62,153 L63,153 L63,152 L64,152 L64,151 L65,151 L65,150 L66,150 L66,152 L67,152 L67,151 L68,151 L68,150 L69,150 L69,149 L70,149 L70,148 L71,148 L71,147 L72,147 L72,146 L73,146 L73,147 L74,147 L74,146 L75,146 L75,145 L78,145 L78,144 L80,144 L80,145 L81,145 L81,143 L83,143 L83,142 L82,142 L82,141 L76,141 L76,140 L77,140 L77,139 L78,139 L78,138 L76,138 L76,139 L74,139 L74,140 L71,140 L71,141 L70,141 L70,140 L69,140 L69,141 L68,141 L68,140 L66,140 L66,141 L65,141 L65,142 L64,142 L64,141 L62,141 L62,142 L60,142 L60,143 L59,143 L59,142 L58,142 L58,143 L57,143 L57,142 L56,142 L56,143 L54,143 L54,144 L53,144 L53,145 L52,145 L52,146 L51,146 L51,145 L50,145 L50,146 L43,146 L43,145 L41,145 L41,144 L39,144 L39,145 L37,145 L37,144 L35,144 L35,143 L34,143 L34,144 L30,144 L30,143 L31,143 L31,142 L21,142 L21,143 L16,143 L16,144 L10,144 L10,145 L6,145 L6,146 L1,146 L1,147 L-8,147 L-8,148 L-25,148 L-25,147 L-48,147 L-48,148 L-55,148 L-55,149 L-60,149 L-60,150 L-66,150 L-66,151 L-77,151 L-77,152 L-81,152 L-81,153 L-87,153 L-87,154 L-107,154 L-107,153 L-109,153 L-109,152 L-116,152 L-116,151 L-117,151 L-117,150 L-116,150 L-116,149 L-112,149 L-112,148 L-113,148 L-113,147 L-121,147 L-121,144 L-122,144 L-122,135 L-123,135 L-123,132 L-124,132 L-124,133 L-125,133 L-125,134 L-126,134 L-126,131 L-127,131 L-127,125 L-128,125 L-128,118 L-129,118 L-129,117 L-128,117 L-128,113 L-129,113 L-129,110 L-128,110 L-128,102 L-129,102 L-129,100 L-130,100 L-130,98 L-131,98 L-131,95 L-132,95 L-132,96 L-133,96 L-133,97 L-134,97 L-134,98 L-135,98 L-135,102 L-134,102 L-134,103 L-135,103 L-135,106 L-136,106 L-136,113 L-137,113 L-137,120 L-138,120 L-138,139 L-139,139 L-139,141 L-138,141 L-138,149 L-139,149 L-139,153 L-138,153 L-138,154 L-139,154 L-139,156 L-140,156 L-140,129 L-139,129 L-139,119 L-140,119 L-140,112 L-139,112 L-139,106 L-138,106 L-138,101 L-137,101 L-137,96 L-136,96 L-136,92 L-135,92 L-135,88 L-134,88 L-134,86 L-133,86 L-133,83 L-132,83 L-132,81 L-131,81 L-131,79 L-130,79 L-130,77 L-129,77 L-129,75 L-128,75 L-128,74 L-127,74 L-127,72 L-126,72 L-126,71 L-125,71 L-125,70 L-124,70 L-124,68 L-123,68 L-123,67 L-122,67 L-122,66 L-121,66 L-121,65 L-120,65 L-120,64 L-119,64 L-119,63 L-118,63 L-118,62 L-117,62 L-117,61 L-116,61 L-116,60 L-114,60 L-114,59 L-113,59 L-113,58 L-112,58 L-112,57 L-111,57 L-111,56 L-110,56 L-110,55 L-109,55 L-109,54 L-108,54 L-108,53 L-107,53 L-107,52 L-106,52 L-106,51 L-105,51 L-105,50 L-104,50 L-104,49 L-103,49 L-103,48 L-102,48 L-102,46 L-101,46 L-101,45 L-100,45 L-100,44 L-99,44 L-99,43 L-98,43 L-98,42 L-97,42 L-97,41 L-96,41 L-96,39 L-95,39 L-95,38 L-94,38 L-94,37 L-93,37 L-93,36 L-92,36 L-92,35 L-91,35 L-91,33 L-90,33 L-90,32 L-89,32 L-89,31 L-88,31 L-88,30 L-87,30 L-87,29 L-86,29 L-86,28 L-85,28 L-85,27 L-84,27 L-84,26 L-82,26 L-82,25 L-81,25 L-81,24 L-80,24 L-80,23 L-78,23 L-78,22 L-77,22 L-77,21 L-75,21 L-75,20 L-74,20 L-74,19 L-72,19 L-72,18 L-69,18 L-69,17 L-67,17 L-67,16 L-64,16 L-64,15 L-61,15 L-61,14 L-58,14 L-58,13 L-55,13 L-55,12 L-52,12 L-52,11 L-50,11 L-50,10 L-47,10 L-47,9 L-45,9 L-45,8 L-42,8 L-42,7 L-39,7 L-39,6 L-37,6 L-37,5 L-33,5 L-33,4 L-29,4 L-29,3 L-23,3 L-23,2 L-10,2 L-10,1 L0,1 Z M58,143 L59,143 L59,144 L58,144 Z M66,149 L67,149 L67,150 L66,150 Z M122,241 L123,241 L123,242 L122,242 Z M112,249 L113,249 L113,250 L112,250 Z M111,250 L112,250 L112,251 L111,251 Z M110,251 L111,251 L111,252 L110,252 Z " transform="translate(210,10)" style="fill: #563E30;"/><path d="M0,0 L1,0 L1,1 L2,1 L2,2 L3,2 L3,3 L4,3 L4,4 L5,4 L5,5 L6,5 L6,6 L7,6 L7,8 L8,8 L8,9 L9,9 L9,11 L10,11 L10,13 L11,13 L11,14 L12,14 L12,17 L13,17 L13,19 L15,19 L15,20 L17,20 L17,21 L18,21 L18,22 L20,22 L20,23 L21,23 L21,24 L23,24 L23,25 L24,25 L24,26 L26,26 L26,27 L27,27 L27,28 L28,28 L28,29 L30,29 L30,30 L31,30 L31,31 L32,31 L32,32 L33,32 L33,33 L34,33 L34,34 L35,34 L35,35 L37,35 L37,36 L38,36 L38,37 L39,37 L39,38 L40,38 L40,39 L41,39 L41,40 L42,40 L42,42 L43,42 L43,43 L44,43 L44,44 L45,44 L45,45 L46,45 L46,47 L47,47 L47,48 L48,48 L48,50 L49,50 L49,52 L50,52 L50,54 L51,54 L51,56 L52,56 L52,59 L53,59 L53,62 L54,62 L54,65 L55,65 L55,69 L56,69 L56,73 L57,73 L57,77 L58,77 L58,83 L59,83 L59,90 L60,90 L60,97 L61,97 L61,103 L-200,103 L-200,100 L-199,100 L-199,98 L-198,98 L-198,95 L-197,95 L-197,92 L-196,92 L-196,90 L-195,90 L-195,87 L-194,87 L-194,85 L-193,85 L-193,82 L-192,82 L-192,79 L-191,79 L-191,77 L-190,77 L-190,74 L-189,74 L-189,72 L-188,72 L-188,69 L-187,69 L-187,67 L-186,67 L-186,64 L-185,64 L-185,62 L-184,62 L-184,60 L-183,60 L-183,58 L-182,58 L-182,56 L-181,56 L-181,55 L-180,55 L-180,53 L-179,53 L-179,52 L-178,52 L-178,51 L-177,51 L-177,50 L-176,50 L-176,49 L-175,49 L-175,48 L-174,48 L-174,47 L-173,47 L-173,46 L-172,46 L-172,45 L-171,45 L-171,44 L-170,44 L-170,43 L-169,43 L-169,42 L-168,42 L-168,41 L-167,41 L-167,40 L-166,40 L-166,39 L-165,39 L-165,38 L-164,38 L-164,37 L-162,37 L-162,36 L-161,36 L-161,35 L-160,35 L-160,34 L-159,34 L-159,33 L-157,33 L-157,32 L-156,32 L-156,31 L-154,31 L-154,30 L-153,30 L-153,29 L-151,29 L-151,28 L-150,28 L-150,27 L-148,27 L-148,26 L-146,26 L-146,25 L-144,25 L-144,24 L-142,24 L-142,23 L-140,23 L-140,22 L-138,22 L-138,21 L-135,21 L-135,20 L-133,20 L-133,19 L-130,19 L-130,18 L-127,18 L-127,17 L-125,17 L-125,16 L-122,16 L-122,15 L-119,15 L-119,14 L-117,14 L-117,13 L-114,13 L-114,12 L-111,12 L-111,11 L-108,11 L-108,12 L-107,12 L-107,14 L-106,14 L-106,15 L-104,15 L-104,16 L-103,16 L-103,17 L-101,17 L-101,18 L-99,18 L-99,19 L-96,19 L-96,20 L-93,20 L-93,21 L-90,21 L-90,22 L-86,22 L-86,23 L-82,23 L-82,24 L-75,24 L-75,25 L-52,25 L-52,24 L-50,24 L-50,21 L-49,21 L-49,17 L-48,17 L-48,15 L-47,15 L-47,14 L-40,14 L-40,13 L-32,13 L-32,12 L-29,12 L-29,11 L-24,11 L-24,10 L-20,10 L-20,9 L-17,9 L-17,8 L-14,8 L-14,7 L-11,7 L-11,6 L-9,6 L-9,5 L-6,5 L-6,4 L-4,4 L-4,3 L-2,3 L-2,2 L-1,2 L-1,1 L0,1 Z " transform="translate(283,317)" style="fill: #D0D0D0;"/><path d="M0,0 L7,0 L7,1 L9,1 L9,2 L10,2 L10,3 L11,3 L11,7 L12,7 L12,9 L13,9 L13,6 L17,6 L17,5 L22,5 L22,4 L23,4 L23,3 L26,3 L26,2 L30,2 L30,3 L49,3 L49,4 L56,4 L56,5 L61,5 L61,6 L67,6 L67,7 L74,7 L74,8 L75,8 L75,9 L76,9 L76,10 L77,10 L77,11 L79,11 L79,12 L81,12 L81,13 L83,13 L83,14 L84,14 L84,16 L85,16 L85,18 L86,18 L86,20 L87,20 L87,22 L88,22 L88,25 L89,25 L89,28 L90,28 L90,31 L91,31 L91,34 L92,34 L92,36 L93,36 L93,45 L94,45 L94,46 L95,46 L95,58 L94,58 L94,59 L92,59 L92,78 L91,78 L91,83 L90,83 L90,85 L89,85 L89,88 L88,88 L88,89 L89,89 L89,92 L88,92 L88,97 L87,97 L87,103 L86,103 L86,105 L85,105 L85,106 L84,106 L84,108 L83,108 L83,113 L82,113 L82,114 L81,114 L81,118 L80,118 L80,119 L79,119 L79,120 L78,120 L78,121 L77,121 L77,122 L76,122 L76,123 L75,123 L75,125 L73,125 L73,126 L71,126 L71,127 L70,127 L70,128 L69,128 L69,129 L64,129 L64,131 L63,131 L63,132 L61,132 L61,133 L60,133 L60,127 L59,127 L59,119 L60,119 L60,118 L61,118 L61,117 L62,117 L62,116 L63,116 L63,115 L64,115 L64,112 L65,112 L65,111 L66,111 L66,110 L67,110 L67,107 L68,107 L68,98 L69,98 L69,91 L70,91 L70,73 L69,73 L69,65 L70,65 L70,61 L71,61 L71,59 L72,59 L72,55 L73,55 L73,54 L74,54 L74,53 L75,53 L75,51 L76,51 L76,49 L77,49 L77,48 L78,48 L78,47 L79,47 L79,43 L78,43 L78,42 L77,42 L77,41 L68,41 L68,42 L67,42 L67,43 L66,43 L66,44 L65,44 L65,45 L64,45 L64,46 L63,46 L63,47 L62,47 L62,48 L61,48 L61,49 L60,49 L60,50 L59,50 L59,70 L60,70 L60,72 L61,72 L61,76 L59,76 L59,75 L58,75 L58,74 L56,74 L56,72 L55,72 L55,70 L54,70 L54,68 L53,68 L53,66 L52,66 L52,65 L51,65 L51,64 L50,64 L50,62 L49,62 L49,60 L48,60 L48,56 L47,56 L47,55 L46,55 L46,52 L45,52 L45,49 L44,49 L44,46 L43,46 L43,43 L42,43 L42,40 L40,40 L40,39 L39,39 L39,36 L38,36 L38,33 L37,33 L37,29 L36,29 L36,27 L35,27 L35,23 L34,23 L34,20 L33,20 L33,17 L32,17 L32,14 L31,14 L31,10 L30,10 L30,7 L29,7 L29,6 L24,6 L24,14 L25,14 L25,15 L26,15 L26,17 L27,17 L27,19 L28,19 L28,22 L29,22 L29,27 L30,27 L30,31 L31,31 L31,37 L32,37 L32,38 L33,38 L33,42 L35,42 L35,56 L34,56 L34,57 L30,57 L30,56 L28,56 L28,55 L26,55 L26,51 L25,51 L25,49 L24,49 L24,45 L23,45 L23,43 L21,43 L21,41 L20,41 L20,38 L19,38 L19,36 L18,36 L18,33 L17,33 L17,32 L16,32 L16,31 L15,31 L15,26 L14,26 L14,23 L13,23 L13,21 L12,21 L12,19 L11,19 L11,15 L10,15 L10,14 L9,14 L9,11 L8,11 L8,8 L7,8 L7,3 L5,3 L5,2 L2,2 L2,9 L1,9 L1,13 L2,13 L2,14 L3,14 L3,17 L4,17 L4,21 L5,21 L5,25 L6,25 L6,28 L7,28 L7,30 L8,30 L8,36 L9,36 L9,39 L10,39 L10,41 L11,41 L11,45 L12,45 L12,47 L13,47 L13,50 L14,50 L14,57 L15,57 L15,64 L14,64 L14,65 L12,65 L12,64 L11,64 L11,63 L9,63 L9,59 L8,59 L8,58 L7,58 L7,56 L6,56 L6,52 L5,52 L5,51 L4,51 L4,49 L3,49 L3,47 L2,47 L2,45 L1,45 L1,43 L0,43 L0,40 L-1,40 L-1,38 L-2,38 L-2,36 L-4,36 L-4,30 L-5,30 L-5,27 L-6,27 L-6,25 L-7,25 L-7,23 L-6,23 L-6,24 L-5,24 L-5,26 L-4,26 L-4,28 L-3,28 L-3,31 L-2,31 L-2,32 L-1,32 L-1,35 L1,35 L1,36 L3,36 L3,32 L2,32 L2,29 L1,29 L1,26 L0,26 L0,23 L-1,23 L-1,19 L-2,19 L-2,16 L-3,16 L-3,13 L-4,13 L-4,11 L-8,11 L-8,12 L-12,12 L-12,13 L-25,13 L-25,14 L-28,14 L-28,15 L-34,15 L-34,16 L-39,16 L-39,17 L-40,17 L-40,18 L-41,18 L-41,19 L-42,19 L-42,18 L-43,18 L-43,19 L-44,19 L-44,20 L-43,20 L-43,22 L-44,22 L-44,27 L-43,27 L-43,31 L-42,31 L-42,35 L-41,35 L-41,36 L-40,36 L-40,37 L-41,37 L-41,38 L-40,38 L-40,46 L-25,46 L-25,47 L-38,47 L-38,48 L-29,48 L-29,49 L-30,49 L-30,50 L-44,50 L-44,51 L-49,51 L-49,52 L-52,52 L-52,53 L-53,53 L-53,54 L-55,54 L-55,56 L-56,56 L-56,57 L-57,57 L-57,59 L-58,59 L-58,61 L-59,61 L-59,64 L-60,64 L-60,68 L-61,68 L-61,79 L-60,79 L-60,82 L-59,82 L-59,86 L-58,86 L-58,87 L-57,87 L-57,89 L-56,89 L-56,91 L-55,91 L-55,92 L-54,92 L-54,93 L-53,93 L-53,94 L-52,94 L-52,95 L-49,95 L-49,96 L-48,96 L-48,97 L-46,97 L-46,99 L-44,99 L-44,100 L-43,100 L-43,102 L-41,102 L-41,101 L-23,101 L-23,100 L-21,100 L-21,99 L-20,99 L-20,98 L-17,98 L-17,97 L-16,97 L-16,96 L-14,96 L-14,94 L-15,94 L-15,92 L-16,92 L-16,90 L-17,90 L-17,88 L-18,88 L-18,86 L-19,86 L-19,84 L-20,84 L-20,82 L-21,82 L-21,80 L-22,80 L-22,77 L-23,77 L-23,75 L-24,75 L-24,74 L-22,74 L-22,75 L-21,75 L-21,77 L-20,77 L-20,78 L-19,78 L-19,82 L-17,82 L-17,85 L-16,85 L-16,87 L-15,87 L-15,89 L-14,89 L-14,91 L-13,91 L-13,93 L-12,93 L-12,95 L-11,95 L-11,96 L-10,96 L-10,97 L-9,97 L-9,101 L-8,101 L-8,102 L-7,102 L-7,103 L-6,103 L-6,104 L-5,104 L-5,106 L-4,106 L-4,107 L-3,107 L-3,111 L-1,111 L-1,112 L0,112 L0,113 L1,113 L1,114 L2,114 L2,115 L3,115 L3,116 L4,116 L4,118 L5,118 L5,119 L7,119 L7,120 L8,120 L8,122 L9,122 L9,123 L10,123 L10,124 L11,124 L11,125 L12,125 L12,128 L14,128 L14,129 L15,129 L15,130 L17,130 L17,131 L18,131 L18,132 L20,132 L20,133 L22,133 L22,134 L23,134 L23,135 L24,135 L24,136 L25,136 L25,137 L26,137 L26,139 L27,139 L27,140 L28,140 L28,143 L25,143 L25,152 L0,152 L0,151 L-7,151 L-7,150 L-10,150 L-10,149 L-12,149 L-12,148 L-14,148 L-14,147 L-16,147 L-16,146 L-18,146 L-18,145 L-20,145 L-20,144 L-21,144 L-21,143 L-22,143 L-22,142 L-25,142 L-25,141 L-27,141 L-27,140 L-29,140 L-29,139 L-30,139 L-30,137 L-32,137 L-32,136 L-33,136 L-33,134 L-35,134 L-35,133 L-37,133 L-37,132 L-38,132 L-38,131 L-39,131 L-39,130 L-42,130 L-42,129 L-43,129 L-43,127 L-44,127 L-44,126 L-45,126 L-45,125 L-46,125 L-46,124 L-47,124 L-47,123 L-48,123 L-48,122 L-50,122 L-50,121 L-51,121 L-51,118 L-52,118 L-52,116 L-53,116 L-53,114 L-54,114 L-54,112 L-55,112 L-55,109 L-56,109 L-56,108 L-57,108 L-57,106 L-58,106 L-58,102 L-59,102 L-59,101 L-60,101 L-60,98 L-61,98 L-61,93 L-62,93 L-62,90 L-60,90 L-60,89 L-61,89 L-61,88 L-62,88 L-62,85 L-63,85 L-63,82 L-64,82 L-64,61 L-65,61 L-65,59 L-66,59 L-66,58 L-67,58 L-67,52 L-64,52 L-64,51 L-63,51 L-63,30 L-62,30 L-62,25 L-61,25 L-61,24 L-60,24 L-60,22 L-59,22 L-59,21 L-58,21 L-58,20 L-56,20 L-56,19 L-55,19 L-55,18 L-54,18 L-54,17 L-53,17 L-53,16 L-51,16 L-51,15 L-49,15 L-49,14 L-47,14 L-47,13 L-45,13 L-45,12 L-44,12 L-44,11 L-40,11 L-40,10 L-37,10 L-37,9 L-32,9 L-32,8 L-26,8 L-26,7 L-4,7 L-4,5 L-3,5 L-3,3 L-2,3 L-2,2 L-1,2 L-1,1 L0,1 Z " transform="translate(207,168)" style="fill: #704F36;"/><path d="M0,0 L1,0 L1,3 L2,3 L2,5 L3,5 L3,7 L4,7 L4,15 L3,15 L3,18 L4,18 L4,22 L3,22 L3,23 L4,23 L4,30 L5,30 L5,36 L6,36 L6,39 L7,39 L7,38 L8,38 L8,37 L9,37 L9,40 L10,40 L10,49 L11,49 L11,52 L19,52 L19,53 L20,53 L20,54 L16,54 L16,55 L15,55 L15,56 L16,56 L16,57 L23,57 L23,58 L25,58 L25,59 L45,59 L45,58 L51,58 L51,57 L55,57 L55,56 L66,56 L66,55 L72,55 L72,54 L77,54 L77,53 L84,53 L84,52 L107,52 L107,53 L124,53 L124,52 L133,52 L133,51 L138,51 L138,50 L142,50 L142,49 L148,49 L148,48 L153,48 L153,47 L163,47 L163,48 L162,48 L162,49 L166,49 L166,48 L167,48 L167,49 L169,49 L169,50 L171,50 L171,49 L173,49 L173,50 L175,50 L175,51 L182,51 L182,50 L183,50 L183,51 L184,51 L184,50 L185,50 L185,49 L186,49 L186,48 L188,48 L188,47 L189,47 L189,48 L190,48 L190,49 L191,49 L191,48 L192,48 L192,47 L194,47 L194,46 L196,46 L196,47 L197,47 L197,46 L198,46 L198,45 L200,45 L200,46 L201,46 L201,45 L202,45 L202,46 L203,46 L203,45 L206,45 L206,44 L208,44 L208,43 L210,43 L210,44 L209,44 L209,45 L208,45 L208,46 L214,46 L214,47 L215,47 L215,48 L213,48 L213,50 L212,50 L212,49 L210,49 L210,50 L207,50 L207,51 L206,51 L206,52 L205,52 L205,51 L204,51 L204,52 L203,52 L203,53 L202,53 L202,54 L201,54 L201,55 L200,55 L200,56 L199,56 L199,57 L198,57 L198,55 L197,55 L197,56 L196,56 L196,57 L195,57 L195,58 L194,58 L194,59 L192,59 L192,60 L167,60 L167,58 L155,58 L155,57 L145,57 L145,58 L144,58 L144,59 L142,59 L142,58 L137,58 L137,59 L136,59 L136,58 L135,58 L135,59 L134,59 L134,60 L133,60 L133,61 L132,61 L132,62 L135,62 L135,63 L129,63 L129,64 L128,64 L128,65 L127,65 L127,66 L126,66 L126,68 L125,68 L125,70 L103,70 L103,71 L97,71 L97,72 L92,72 L92,73 L89,73 L89,74 L85,74 L85,75 L84,75 L84,76 L82,76 L82,77 L80,77 L80,78 L78,78 L78,79 L76,79 L76,80 L75,80 L75,81 L74,81 L74,82 L73,82 L73,83 L71,83 L71,84 L70,84 L70,85 L69,85 L69,87 L68,87 L68,88 L67,88 L67,89 L66,89 L66,92 L65,92 L65,95 L64,95 L64,99 L63,99 L63,103 L62,103 L62,105 L61,105 L61,109 L60,109 L60,141 L59,141 L59,140 L58,140 L58,137 L57,137 L57,130 L55,130 L55,131 L54,131 L54,137 L53,137 L53,139 L52,139 L52,140 L50,140 L50,141 L48,141 L48,142 L46,142 L46,144 L47,144 L47,146 L48,146 L48,149 L49,149 L49,151 L50,151 L50,153 L51,153 L51,155 L52,155 L52,157 L53,157 L53,158 L54,158 L54,159 L55,159 L55,160 L61,160 L61,161 L63,161 L63,163 L64,163 L64,165 L65,165 L65,168 L66,168 L66,171 L67,171 L67,173 L68,173 L68,176 L69,176 L69,178 L67,178 L67,177 L62,177 L62,176 L58,176 L58,175 L55,175 L55,174 L52,174 L52,173 L50,173 L50,172 L49,172 L49,171 L47,171 L47,170 L46,170 L46,169 L44,169 L44,168 L43,168 L43,167 L42,167 L42,166 L41,166 L41,165 L40,165 L40,164 L39,164 L39,163 L38,163 L38,162 L37,162 L37,161 L36,161 L36,160 L35,160 L35,158 L34,158 L34,157 L33,157 L33,156 L32,156 L32,155 L31,155 L31,154 L30,154 L30,153 L29,153 L29,152 L28,152 L28,151 L27,151 L27,150 L26,150 L26,149 L25,149 L25,148 L24,148 L24,147 L23,147 L23,146 L22,146 L22,145 L21,145 L21,144 L20,144 L20,143 L19,143 L19,142 L18,142 L18,141 L17,141 L17,140 L16,140 L16,139 L15,139 L15,138 L14,138 L14,137 L13,137 L13,135 L12,135 L12,134 L11,134 L11,133 L10,133 L10,131 L9,131 L9,130 L8,130 L8,128 L7,128 L7,127 L6,127 L6,125 L5,125 L5,124 L4,124 L4,123 L3,123 L3,121 L2,121 L2,120 L1,120 L1,118 L0,118 L0,117 L-1,117 L-1,115 L-2,115 L-2,113 L-3,113 L-3,111 L-4,111 L-4,108 L-5,108 L-5,106 L-6,106 L-6,103 L-7,103 L-7,99 L-8,99 L-8,96 L-9,96 L-9,92 L-10,92 L-10,88 L-11,88 L-11,82 L-12,82 L-12,71 L-13,71 L-13,59 L-12,59 L-12,49 L-11,49 L-11,43 L-10,43 L-10,36 L-9,36 L-9,27 L-8,27 L-8,24 L-7,24 L-7,34 L-8,34 L-8,61 L-7,61 L-7,59 L-6,59 L-6,58 L-7,58 L-7,54 L-6,54 L-6,46 L-7,46 L-7,44 L-6,44 L-6,25 L-5,25 L-5,18 L-4,18 L-4,11 L-3,11 L-3,8 L-2,8 L-2,7 L-3,7 L-3,3 L-2,3 L-2,2 L-1,2 L-1,1 L0,1 Z M198,54 L198,55 L199,55 L199,54 Z M190,47 L191,47 L191,48 L190,48 Z " transform="translate(78,105)" style="fill: #29170C;"/><path d="M0,0 L1,0 L1,1 L2,1 L2,2 L3,2 L3,3 L4,3 L4,4 L5,4 L5,5 L6,5 L6,6 L7,6 L7,8 L8,8 L8,9 L9,9 L9,11 L10,11 L10,13 L11,13 L11,14 L12,14 L12,17 L13,17 L13,19 L15,19 L15,20 L17,20 L17,21 L18,21 L18,22 L20,22 L20,23 L21,23 L21,24 L23,24 L23,25 L24,25 L24,26 L26,26 L26,27 L27,27 L27,28 L28,28 L28,29 L30,29 L30,30 L31,30 L31,31 L32,31 L32,32 L33,32 L33,33 L34,33 L34,34 L35,34 L35,35 L37,35 L37,36 L38,36 L38,37 L39,37 L39,38 L40,38 L40,39 L41,39 L41,40 L42,40 L42,42 L43,42 L43,43 L44,43 L44,44 L45,44 L45,45 L46,45 L46,47 L47,47 L47,48 L48,48 L48,50 L49,50 L49,52 L50,52 L50,54 L51,54 L51,56 L52,56 L52,59 L53,59 L53,62 L54,62 L54,65 L55,65 L55,69 L56,69 L56,73 L57,73 L57,77 L58,77 L58,83 L59,83 L59,90 L60,90 L60,97 L61,97 L61,103 L-27,103 L-27,102 L-28,102 L-28,99 L-29,99 L-29,96 L-30,96 L-30,94 L-31,94 L-31,91 L-32,91 L-32,88 L-33,88 L-33,85 L-34,85 L-34,83 L-35,83 L-35,80 L-36,80 L-36,77 L-37,77 L-37,74 L-38,74 L-38,71 L-39,71 L-39,68 L-40,68 L-40,65 L-41,65 L-41,62 L-42,62 L-42,59 L-43,59 L-43,56 L-44,56 L-44,52 L-45,52 L-45,49 L-46,49 L-46,46 L-47,46 L-47,42 L-48,42 L-48,38 L-49,38 L-49,34 L-75,34 L-75,33 L-81,33 L-81,32 L-86,32 L-86,31 L-92,31 L-92,30 L-95,30 L-95,29 L-97,29 L-97,27 L-100,27 L-100,25 L-107,25 L-107,24 L-108,24 L-108,23 L-111,23 L-111,22 L-113,22 L-113,21 L-115,21 L-115,20 L-118,20 L-118,19 L-119,19 L-119,17 L-121,17 L-121,15 L-119,15 L-119,14 L-117,14 L-117,13 L-114,13 L-114,12 L-111,12 L-111,11 L-108,11 L-108,12 L-107,12 L-107,14 L-106,14 L-106,15 L-104,15 L-104,16 L-103,16 L-103,17 L-101,17 L-101,18 L-99,18 L-99,19 L-96,19 L-96,20 L-93,20 L-93,21 L-90,21 L-90,22 L-86,22 L-86,23 L-82,23 L-82,24 L-75,24 L-75,25 L-52,25 L-52,24 L-50,24 L-50,21 L-49,21 L-49,17 L-48,17 L-48,15 L-47,15 L-47,14 L-40,14 L-40,13 L-32,13 L-32,12 L-29,12 L-29,11 L-24,11 L-24,10 L-20,10 L-20,9 L-17,9 L-17,8 L-14,8 L-14,7 L-11,7 L-11,6 L-9,6 L-9,5 L-6,5 L-6,4 L-4,4 L-4,3 L-2,3 L-2,2 L-1,2 L-1,1 L0,1 Z " transform="translate(283,317)" style="fill: #C7C7C7;"/><path d="M0,0 L4,0 L4,1 L3,1 L3,2 L-1,2 L-1,3 L-2,3 L-2,4 L-6,4 L-6,5 L-13,5 L-13,6 L-15,6 L-15,7 L-16,7 L-16,17 L-15,17 L-15,18 L-14,18 L-14,21 L-13,21 L-13,22 L-12,22 L-12,24 L-10,24 L-10,30 L-9,30 L-9,33 L-8,33 L-8,36 L-7,36 L-7,38 L-6,38 L-6,47 L-5,47 L-5,43 L-2,43 L-2,49 L-1,49 L-1,57 L0,57 L0,50 L1,50 L1,56 L2,56 L2,63 L4,63 L4,76 L5,76 L5,72 L7,72 L7,79 L8,79 L8,83 L9,83 L9,86 L10,86 L10,89 L11,89 L11,92 L12,92 L12,93 L-3,93 L-3,92 L-4,92 L-4,89 L-5,89 L-5,86 L-6,86 L-6,84 L-7,84 L-7,81 L-8,81 L-8,78 L-9,78 L-9,75 L-10,75 L-10,73 L-11,73 L-11,70 L-12,70 L-12,67 L-13,67 L-13,64 L-14,64 L-14,61 L-15,61 L-15,58 L-16,58 L-16,55 L-17,55 L-17,52 L-18,52 L-18,49 L-19,49 L-19,46 L-20,46 L-20,42 L-21,42 L-21,39 L-22,39 L-22,36 L-23,36 L-23,32 L-24,32 L-24,28 L-25,28 L-25,24 L-51,24 L-51,23 L-57,23 L-57,22 L-62,22 L-62,21 L-68,21 L-68,20 L-71,20 L-71,19 L-73,19 L-73,17 L-76,17 L-76,15 L-83,15 L-83,14 L-84,14 L-84,13 L-87,13 L-87,12 L-89,12 L-89,11 L-91,11 L-91,10 L-94,10 L-94,9 L-95,9 L-95,7 L-97,7 L-97,5 L-95,5 L-95,4 L-93,4 L-93,3 L-90,3 L-90,2 L-87,2 L-87,1 L-84,1 L-84,2 L-83,2 L-83,4 L-82,4 L-82,5 L-80,5 L-80,6 L-79,6 L-79,7 L-77,7 L-77,8 L-75,8 L-75,9 L-72,9 L-72,10 L-69,10 L-69,11 L-66,11 L-66,12 L-62,12 L-62,13 L-58,13 L-58,14 L-51,14 L-51,15 L-28,15 L-28,14 L-26,14 L-26,11 L-25,11 L-25,7 L-24,7 L-24,5 L-23,5 L-23,4 L-16,4 L-16,3 L-8,3 L-8,2 L-5,2 L-5,1 L0,1 Z " transform="translate(259,327)" style="fill: #ACACAC;"/><path d="M0,0 L4,0 L4,2 L5,2 L5,5 L6,5 L6,8 L7,8 L7,12 L8,12 L8,15 L9,15 L9,18 L10,18 L10,21 L11,21 L11,25 L9,25 L9,24 L7,24 L7,21 L6,21 L6,20 L5,20 L5,17 L4,17 L4,15 L3,15 L3,13 L2,13 L2,12 L1,12 L1,14 L2,14 L2,16 L3,16 L3,19 L4,19 L4,21 L3,21 L3,20 L2,20 L2,18 L1,18 L1,17 L0,17 L0,15 L-1,15 L-1,12 L-2,12 L-2,11 L-3,11 L-3,10 L-4,10 L-4,9 L-9,9 L-9,14 L-8,14 L-8,16 L-7,16 L-7,19 L-6,19 L-6,22 L-5,22 L-5,23 L-4,23 L-4,27 L-3,27 L-3,29 L-2,29 L-2,31 L-1,31 L-1,35 L0,35 L0,37 L1,37 L1,45 L3,45 L3,47 L4,47 L4,49 L5,49 L5,51 L6,51 L6,57 L7,57 L7,59 L8,59 L8,68 L2,68 L2,67 L1,67 L1,65 L0,65 L0,63 L-1,63 L-1,61 L-2,61 L-2,60 L-3,60 L-3,57 L-4,57 L-4,55 L-5,55 L-5,53 L-6,53 L-6,51 L-9,51 L-9,47 L-10,47 L-10,45 L-11,45 L-11,44 L-12,44 L-12,43 L-13,43 L-13,41 L-14,41 L-14,40 L-15,40 L-15,39 L-19,39 L-19,43 L-18,43 L-18,45 L-17,45 L-17,47 L-16,47 L-16,50 L-15,50 L-15,51 L-14,51 L-14,53 L-13,53 L-13,55 L-12,55 L-12,58 L-11,58 L-11,61 L-10,61 L-10,62 L-9,62 L-9,65 L-8,65 L-8,70 L-9,70 L-9,67 L-10,67 L-10,63 L-12,63 L-12,60 L-14,60 L-14,58 L-15,58 L-15,56 L-16,56 L-16,51 L-17,51 L-17,49 L-18,49 L-18,48 L-19,48 L-19,46 L-20,46 L-20,44 L-21,44 L-21,37 L-30,37 L-30,36 L-17,36 L-17,35 L-32,35 L-32,27 L-33,27 L-33,26 L-32,26 L-32,25 L-33,25 L-33,24 L-34,24 L-34,20 L-35,20 L-35,16 L-36,16 L-36,11 L-35,11 L-35,9 L-36,9 L-36,8 L-35,8 L-35,7 L-34,7 L-34,8 L-33,8 L-33,7 L-32,7 L-32,6 L-31,6 L-31,5 L-26,5 L-26,4 L-20,4 L-20,3 L-17,3 L-17,2 L-4,2 L-4,1 L0,1 Z " transform="translate(199,179)" style="fill: #8F6A50;"/><path d="M0,0 L1,0 L1,1 L2,1 L2,4 L3,4 L3,6 L4,6 L4,7 L5,7 L5,9 L6,9 L6,11 L7,11 L7,13 L8,13 L8,15 L9,15 L9,17 L10,17 L10,18 L11,18 L11,20 L12,20 L12,21 L13,21 L13,22 L14,22 L14,25 L10,25 L10,26 L8,26 L8,27 L7,27 L7,28 L5,28 L5,29 L4,29 L4,30 L3,30 L3,31 L5,31 L5,30 L9,30 L9,29 L12,29 L12,27 L18,27 L18,28 L19,28 L19,29 L20,29 L20,30 L22,30 L22,31 L23,31 L23,32 L24,32 L24,33 L26,33 L26,34 L28,34 L28,35 L30,35 L30,36 L32,36 L32,37 L34,37 L34,38 L35,38 L35,39 L36,39 L36,40 L37,40 L37,41 L38,41 L38,44 L37,44 L37,46 L17,46 L17,45 L5,45 L5,44 L3,44 L3,43 L2,43 L2,41 L0,41 L0,40 L-1,40 L-1,39 L-5,39 L-5,38 L-7,38 L-7,37 L-8,37 L-8,36 L-10,36 L-10,35 L-12,35 L-12,34 L-13,34 L-13,33 L-15,33 L-15,32 L-16,32 L-16,31 L-17,31 L-17,30 L-19,30 L-19,29 L-20,29 L-20,28 L-21,28 L-21,27 L-22,27 L-22,26 L-23,26 L-23,25 L-27,25 L-27,23 L-28,23 L-28,22 L-29,22 L-29,21 L-30,21 L-30,18 L-32,18 L-32,16 L-31,16 L-31,15 L-19,15 L-19,14 L-16,14 L-16,13 L-21,13 L-21,12 L-18,12 L-18,11 L-25,11 L-25,10 L-29,10 L-29,8 L-31,8 L-31,7 L-34,7 L-34,4 L-32,4 L-32,5 L-29,5 L-29,6 L-11,6 L-11,5 L-7,5 L-7,4 L-5,4 L-5,3 L-3,3 L-3,2 L-1,2 L-1,1 L0,1 Z " transform="translate(194,267)" style="fill: #7D5A3F;"/><path d="M0,0 L9,0 L9,1 L14,1 L14,2 L15,2 L15,3 L16,3 L16,4 L17,4 L17,5 L21,5 L21,6 L24,6 L24,11 L25,11 L25,25 L26,25 L26,21 L27,21 L27,19 L28,19 L28,22 L29,22 L29,24 L30,24 L30,21 L31,21 L31,20 L32,20 L32,24 L33,24 L33,26 L34,26 L34,31 L-11,31 L-11,29 L-10,29 L-10,27 L-9,27 L-9,26 L-8,26 L-8,24 L-7,24 L-7,21 L-6,21 L-6,18 L-5,18 L-5,5 L-4,5 L-4,3 L-2,3 L-2,1 L0,1 Z " transform="translate(145,389)" style="fill: #AAAAAA;"/><path d="M0,0 L1,0 L1,1 L2,1 L2,2 L3,2 L3,3 L4,3 L4,4 L5,4 L5,5 L6,5 L6,6 L7,6 L7,8 L8,8 L8,9 L9,9 L9,11 L10,11 L10,13 L11,13 L11,14 L12,14 L12,17 L13,17 L13,19 L15,19 L15,20 L17,20 L17,21 L18,21 L18,22 L20,22 L20,23 L21,23 L21,24 L23,24 L23,25 L24,25 L24,26 L26,26 L26,27 L27,27 L27,28 L28,28 L28,29 L30,29 L30,30 L31,30 L31,31 L32,31 L32,32 L33,32 L33,33 L34,33 L34,34 L35,34 L35,35 L37,35 L37,36 L38,36 L38,37 L39,37 L39,38 L40,38 L40,39 L41,39 L41,40 L42,40 L42,42 L43,42 L43,43 L44,43 L44,44 L45,44 L45,45 L46,45 L46,47 L47,47 L47,48 L48,48 L48,50 L49,50 L49,52 L50,52 L50,54 L51,54 L51,56 L52,56 L52,59 L53,59 L53,62 L54,62 L54,65 L55,65 L55,69 L56,69 L56,73 L57,73 L57,77 L58,77 L58,83 L59,83 L59,90 L60,90 L60,97 L61,97 L61,103 L55,103 L55,82 L54,82 L54,78 L53,78 L53,70 L52,70 L52,66 L50,66 L50,63 L49,63 L49,61 L48,61 L48,60 L47,60 L47,59 L46,59 L46,55 L45,55 L45,52 L44,52 L44,48 L43,48 L43,47 L42,47 L42,45 L41,45 L41,44 L40,44 L40,42 L39,42 L39,41 L38,41 L38,40 L37,40 L37,39 L36,39 L36,38 L35,38 L35,37 L34,37 L34,36 L32,36 L32,35 L31,35 L31,34 L30,34 L30,33 L29,33 L29,32 L28,32 L28,31 L27,31 L27,30 L26,30 L26,29 L25,29 L25,28 L24,28 L24,27 L22,27 L22,26 L20,26 L20,25 L18,25 L18,24 L16,24 L16,27 L17,27 L17,30 L18,30 L18,33 L19,33 L19,36 L20,36 L20,38 L21,38 L21,41 L22,41 L22,44 L23,44 L23,46 L24,46 L24,49 L25,49 L25,52 L26,52 L26,54 L27,54 L27,57 L28,57 L28,59 L29,59 L29,62 L30,62 L30,65 L31,65 L31,67 L32,67 L32,70 L33,70 L33,72 L34,72 L34,75 L35,75 L35,77 L36,77 L36,80 L37,80 L37,82 L38,82 L38,85 L39,85 L39,87 L40,87 L40,89 L41,89 L41,92 L42,92 L42,94 L43,94 L43,96 L44,96 L44,99 L45,99 L45,101 L46,101 L46,103 L35,103 L35,90 L33,90 L33,92 L32,92 L32,81 L31,81 L31,78 L30,78 L30,76 L29,76 L29,75 L28,75 L28,73 L27,73 L27,68 L25,68 L25,65 L24,65 L24,62 L23,62 L23,58 L22,58 L22,54 L21,54 L21,51 L20,51 L20,49 L19,49 L19,45 L18,45 L18,44 L17,44 L17,39 L16,39 L16,38 L15,38 L15,35 L14,35 L14,33 L13,33 L13,29 L12,29 L12,26 L11,26 L11,24 L10,24 L10,23 L9,23 L9,20 L8,20 L8,14 L7,14 L7,11 L6,11 L6,10 L5,10 L5,8 L4,8 L4,7 L2,7 L2,6 L1,6 L1,5 L-2,5 L-2,6 L-7,6 L-7,7 L-11,7 L-11,6 L-9,6 L-9,5 L-6,5 L-6,4 L-4,4 L-4,3 L-2,3 L-2,2 L-1,2 L-1,1 L0,1 Z " transform="translate(283,317)" style="fill: #ACACAC;"/><path d="M0,0 L7,0 L7,1 L11,1 L11,2 L14,2 L14,3 L22,3 L22,4 L26,4 L26,5 L28,5 L28,6 L31,6 L31,7 L32,7 L32,6 L35,6 L35,10 L34,10 L34,18 L33,18 L33,29 L32,29 L32,33 L31,33 L31,34 L30,34 L30,35 L28,35 L28,36 L27,36 L27,37 L26,37 L26,38 L25,38 L25,39 L15,39 L15,40 L13,40 L13,39 L12,39 L12,37 L11,37 L11,34 L10,34 L10,31 L9,31 L9,28 L8,28 L8,25 L7,25 L7,21 L6,21 L6,17 L5,17 L5,14 L4,14 L4,11 L3,11 L3,9 L2,9 L2,6 L1,6 L1,3 L0,3 Z " transform="translate(242,175)" style="fill: #8F6B50;"/><path d="M0,0 L3,0 L3,1 L4,1 L4,3 L5,3 L5,4 L7,4 L7,5 L8,5 L8,6 L10,6 L10,7 L12,7 L12,8 L15,8 L15,9 L18,9 L18,10 L21,10 L21,11 L25,11 L25,12 L29,12 L29,13 L36,13 L36,14 L59,14 L59,13 L61,13 L61,10 L62,10 L62,6 L63,6 L63,14 L62,14 L62,18 L63,18 L63,22 L64,22 L64,25 L65,25 L65,30 L66,30 L66,34 L67,34 L67,36 L68,36 L68,38 L70,38 L70,40 L71,40 L71,45 L72,45 L72,49 L73,49 L73,50 L74,50 L74,53 L75,53 L75,57 L76,57 L76,59 L77,59 L77,63 L78,63 L78,65 L79,65 L79,67 L80,67 L80,69 L81,69 L81,72 L82,72 L82,74 L83,74 L83,77 L84,77 L84,79 L85,79 L85,83 L86,83 L86,85 L87,85 L87,88 L88,88 L88,90 L89,90 L89,92 L84,92 L84,91 L83,91 L83,88 L82,88 L82,85 L81,85 L81,83 L80,83 L80,80 L79,80 L79,77 L78,77 L78,74 L77,74 L77,72 L76,72 L76,69 L75,69 L75,66 L74,66 L74,63 L73,63 L73,60 L72,60 L72,57 L71,57 L71,54 L70,54 L70,51 L69,51 L69,48 L68,48 L68,45 L67,45 L67,41 L66,41 L66,38 L65,38 L65,35 L64,35 L64,31 L63,31 L63,27 L62,27 L62,23 L36,23 L36,22 L30,22 L30,21 L25,21 L25,20 L19,20 L19,19 L16,19 L16,18 L14,18 L14,16 L11,16 L11,14 L4,14 L4,13 L3,13 L3,12 L0,12 L0,11 L-2,11 L-2,10 L-4,10 L-4,9 L-7,9 L-7,8 L-8,8 L-8,6 L-10,6 L-10,4 L-8,4 L-8,3 L-6,3 L-6,2 L-3,2 L-3,1 L0,1 Z " transform="translate(172,328)" style="fill: #7A7A7A;"/><path d="M0,0 L3,0 L3,1 L4,1 L4,2 L5,2 L5,4 L6,4 L6,7 L7,7 L7,10 L8,10 L8,13 L9,13 L9,17 L10,17 L10,22 L11,22 L11,27 L12,27 L12,32 L13,32 L13,36 L14,36 L14,41 L15,41 L15,47 L16,47 L16,55 L17,55 L17,63 L16,63 L16,74 L15,74 L15,102 L14,102 L14,106 L13,106 L13,109 L12,109 L12,112 L11,112 L11,114 L10,114 L10,116 L9,116 L9,117 L8,117 L8,119 L7,119 L7,120 L6,120 L6,122 L5,122 L5,123 L4,123 L4,124 L3,124 L3,125 L2,125 L2,124 L1,124 L1,123 L2,123 L2,121 L0,121 L0,122 L-2,122 L-2,121 L-1,121 L-1,120 L0,120 L0,119 L1,119 L1,118 L2,118 L2,117 L4,117 L4,115 L5,115 L5,114 L6,114 L6,113 L7,113 L7,112 L8,112 L8,110 L9,110 L9,109 L10,109 L10,106 L11,106 L11,103 L12,103 L12,100 L13,100 L13,94 L14,94 L14,86 L13,86 L13,87 L12,87 L12,90 L11,90 L11,96 L10,96 L10,98 L9,98 L9,99 L10,99 L10,101 L9,101 L9,103 L8,103 L8,104 L7,104 L7,105 L6,105 L6,107 L5,107 L5,109 L4,109 L4,110 L3,110 L3,111 L2,111 L2,113 L0,113 L0,114 L-1,114 L-1,115 L-4,115 L-4,116 L-5,116 L-5,114 L-4,114 L-4,113 L-3,113 L-3,112 L-2,112 L-2,110 L-1,110 L-1,109 L0,109 L0,107 L1,107 L1,105 L2,105 L2,104 L3,104 L3,101 L4,101 L4,99 L5,99 L5,97 L6,97 L6,95 L7,95 L7,94 L8,94 L8,91 L9,91 L9,88 L10,88 L10,84 L11,84 L11,81 L9,81 L9,82 L8,82 L8,80 L9,80 L9,76 L7,76 L7,77 L6,77 L6,78 L5,78 L5,79 L4,79 L4,80 L3,80 L3,81 L1,81 L1,80 L2,80 L2,79 L1,79 L1,74 L2,74 L2,73 L3,73 L3,69 L4,69 L4,66 L5,66 L5,65 L7,65 L7,64 L8,64 L8,63 L9,63 L9,62 L10,62 L10,61 L11,61 L11,59 L12,59 L12,46 L11,46 L11,42 L10,42 L10,37 L9,37 L9,31 L8,31 L8,25 L7,25 L7,21 L6,21 L6,18 L5,18 L5,16 L4,16 L4,14 L3,14 L3,8 L2,8 L2,9 L1,9 L1,6 L0,6 Z M2,120 L2,121 L3,121 L3,120 Z M0,79 L1,79 L1,80 L0,80 Z M7,82 L8,82 L8,83 L7,83 Z " transform="translate(357,97)" style="fill: #2F1C11;"/><path d="M0,0 L4,0 L4,1 L5,1 L5,5 L6,5 L6,6 L7,6 L7,7 L9,7 L9,8 L10,8 L10,9 L11,9 L11,10 L12,10 L12,11 L13,11 L13,12 L14,12 L14,14 L16,14 L16,15 L18,15 L18,16 L19,16 L19,17 L20,17 L20,18 L23,18 L23,19 L24,19 L24,20 L26,20 L26,21 L28,21 L28,22 L30,22 L30,23 L32,23 L32,24 L33,24 L33,25 L36,25 L36,26 L37,26 L37,27 L39,27 L39,28 L41,28 L41,29 L43,29 L43,30 L46,30 L46,31 L49,31 L49,32 L56,32 L56,33 L62,33 L62,34 L82,34 L82,30 L83,30 L83,36 L84,36 L84,39 L85,39 L85,42 L87,42 L87,43 L86,43 L86,44 L85,44 L85,43 L83,43 L83,44 L80,44 L80,45 L75,45 L75,46 L61,46 L61,45 L56,45 L56,44 L52,44 L52,43 L48,43 L48,42 L45,42 L45,41 L43,41 L43,40 L40,40 L40,34 L41,34 L41,32 L39,32 L39,31 L36,31 L36,30 L34,30 L34,29 L32,29 L32,28 L29,28 L29,27 L27,27 L27,26 L25,26 L25,25 L24,25 L24,24 L22,24 L22,23 L20,23 L20,22 L18,22 L18,21 L17,21 L17,20 L16,20 L16,19 L14,19 L14,18 L13,18 L13,17 L12,17 L12,16 L11,16 L11,15 L10,15 L10,14 L9,14 L9,13 L8,13 L8,12 L7,12 L7,11 L6,11 L6,10 L5,10 L5,8 L4,8 L4,7 L3,7 L3,5 L2,5 L2,4 L1,4 L1,2 L0,2 Z " transform="translate(150,288)" style="fill: #4C290A;"/><path d="M0,0 L4,0 L4,1 L6,1 L6,2 L10,2 L10,3 L15,3 L15,4 L33,4 L33,6 L34,6 L34,8 L35,8 L35,10 L36,10 L36,12 L37,12 L37,14 L38,14 L38,16 L39,16 L39,18 L37,18 L37,19 L36,19 L36,20 L33,20 L33,21 L32,21 L32,22 L30,22 L30,23 L12,23 L12,24 L10,24 L10,22 L9,22 L9,21 L7,21 L7,19 L5,19 L5,18 L4,18 L4,17 L1,17 L1,16 L0,16 L0,15 L-1,15 L-1,14 L-2,14 L-2,13 L-3,13 L-3,11 L-4,11 L-4,9 L-5,9 L-5,4 L-3,4 L-3,3 L-2,3 L-2,2 L0,2 Z " transform="translate(154,246)" style="fill: #B29F94;"/><path d="M0,0 L1,0 L1,1 L0,1 Z M-3,1 L0,1 L0,2 L3,2 L3,1 L11,1 L11,2 L13,2 L13,3 L14,3 L14,4 L15,4 L15,5 L17,5 L17,7 L18,7 L18,9 L19,9 L19,12 L20,12 L20,17 L18,17 L18,16 L14,16 L14,15 L13,15 L13,14 L12,14 L12,13 L11,13 L11,12 L6,12 L6,11 L-3,11 L-3,12 L-5,12 L-5,14 L-7,14 L-7,16 L-8,16 L-8,29 L-9,29 L-9,32 L-10,32 L-10,35 L-11,35 L-11,37 L-12,37 L-12,38 L-13,38 L-13,40 L-14,40 L-14,42 L-19,42 L-19,38 L-18,38 L-18,35 L-17,35 L-17,28 L-18,28 L-18,26 L-17,26 L-17,22 L-16,22 L-16,14 L-14,14 L-14,12 L-13,12 L-13,10 L-12,10 L-12,9 L-11,9 L-11,8 L-10,8 L-10,7 L-9,7 L-9,6 L-8,6 L-8,5 L-7,5 L-7,4 L-6,4 L-6,3 L-5,3 L-5,2 L-3,2 Z M-19,28 L-18,28 L-18,29 L-19,29 Z " transform="translate(148,378)" style="fill: #C0C0C0;"/><path d="M0,0 L1,0 L1,1 L3,1 L3,3 L4,3 L4,4 L5,4 L5,6 L6,6 L6,9 L7,9 L7,12 L8,12 L8,28 L7,28 L7,31 L6,31 L6,33 L5,33 L5,35 L4,35 L4,37 L3,37 L3,38 L2,38 L2,40 L1,40 L1,41 L0,41 L0,42 L-1,42 L-1,43 L-3,43 L-3,44 L-2,44 L-2,45 L-3,45 L-3,46 L-4,46 L-4,45 L-5,45 L-5,47 L-6,47 L-6,46 L-7,46 L-7,24 L-8,24 L-8,17 L-7,17 L-7,12 L-6,12 L-6,10 L-5,10 L-5,8 L-4,8 L-4,6 L-3,6 L-3,5 L-2,5 L-2,3 L-1,3 L-1,1 L0,1 Z " transform="translate(287,221)" style="fill: #796355;"/><path d="M0,0 L16,0 L16,1 L25,1 L25,2 L45,2 L45,3 L44,3 L44,5 L43,5 L43,7 L21,7 L21,8 L15,8 L15,9 L10,9 L10,10 L7,10 L7,11 L3,11 L3,12 L2,12 L2,13 L0,13 L0,14 L-2,14 L-2,15 L-4,15 L-4,16 L-6,16 L-6,17 L-7,17 L-7,18 L-8,18 L-8,19 L-9,19 L-9,20 L-11,20 L-11,21 L-12,21 L-12,22 L-13,22 L-13,24 L-14,24 L-14,25 L-15,25 L-15,26 L-16,26 L-16,29 L-17,29 L-17,32 L-18,32 L-18,36 L-19,36 L-19,30 L-18,30 L-18,27 L-17,27 L-17,23 L-16,23 L-16,20 L-15,20 L-15,17 L-14,17 L-14,16 L-13,16 L-13,12 L-12,12 L-12,11 L-11,11 L-11,10 L-10,10 L-10,7 L-9,7 L-9,6 L-8,6 L-8,5 L-7,5 L-7,4 L-6,4 L-6,3 L-4,3 L-4,2 L-3,2 L-3,1 L0,1 Z " transform="translate(160,168)" style="fill: #4A2808;"/><path d="M0,0 L4,0 L4,1 L3,1 L3,2 L-1,2 L-1,3 L-2,3 L-2,4 L-6,4 L-6,5 L-18,5 L-18,6 L-19,6 L-19,8 L-20,8 L-20,19 L-19,19 L-19,26 L-17,26 L-17,31 L-16,31 L-16,33 L-15,33 L-15,35 L-14,35 L-14,38 L-13,38 L-13,42 L-12,42 L-12,44 L-11,44 L-11,48 L-10,48 L-10,51 L-9,51 L-9,52 L-8,52 L-8,54 L-7,54 L-7,56 L-6,56 L-6,59 L-5,59 L-5,61 L-4,61 L-4,63 L-3,63 L-3,64 L-2,64 L-2,68 L-1,68 L-1,69 L0,69 L0,73 L1,73 L1,76 L2,76 L2,79 L3,79 L3,82 L4,82 L4,88 L6,88 L6,90 L7,90 L7,93 L2,93 L2,91 L1,91 L1,89 L0,89 L0,86 L-1,86 L-1,84 L-2,84 L-2,80 L-3,80 L-3,78 L-4,78 L-4,75 L-5,75 L-5,73 L-6,73 L-6,70 L-7,70 L-7,68 L-8,68 L-8,66 L-9,66 L-9,64 L-10,64 L-10,60 L-11,60 L-11,58 L-12,58 L-12,54 L-13,54 L-13,51 L-14,51 L-14,50 L-15,50 L-15,46 L-16,46 L-16,41 L-17,41 L-17,39 L-19,39 L-19,37 L-20,37 L-20,35 L-21,35 L-21,31 L-22,31 L-22,26 L-23,26 L-23,23 L-24,23 L-24,19 L-25,19 L-25,15 L-24,15 L-24,5 L-23,5 L-23,4 L-16,4 L-16,3 L-8,3 L-8,2 L-5,2 L-5,1 L0,1 Z " transform="translate(259,327)" style="fill: #979797;"/><path d="M0,0 L2,0 L2,1 L3,1 L3,3 L4,3 L4,5 L5,5 L5,7 L6,7 L6,9 L7,9 L7,10 L8,10 L8,12 L9,12 L9,13 L10,13 L10,14 L11,14 L11,17 L7,17 L7,18 L5,18 L5,19 L4,19 L4,20 L2,20 L2,21 L1,21 L1,22 L0,22 L0,23 L1,23 L1,24 L2,24 L2,25 L3,25 L3,28 L-5,28 L-5,27 L-6,27 L-6,26 L-7,26 L-7,25 L-10,25 L-10,23 L-12,23 L-12,22 L-14,22 L-14,21 L-15,21 L-15,20 L-16,20 L-16,19 L-17,19 L-17,18 L-18,18 L-18,17 L-20,17 L-20,15 L-21,15 L-21,13 L-22,13 L-22,12 L-23,12 L-23,10 L-15,10 L-15,9 L-12,9 L-12,8 L-9,8 L-9,6 L-6,6 L-6,5 L-5,5 L-5,4 L-3,4 L-3,3 L-2,3 L-2,2 L-1,2 L-1,1 L0,1 Z " transform="translate(197,275)" style="fill: #8C694F;"/><path d="M0,0 L2,0 L2,1 L4,1 L4,2 L6,2 L6,3 L8,3 L8,4 L9,4 L9,5 L10,5 L10,6 L11,6 L11,7 L12,7 L12,8 L13,8 L13,9 L14,9 L14,10 L15,10 L15,11 L16,11 L16,12 L18,12 L18,13 L19,13 L19,14 L20,14 L20,15 L21,15 L21,16 L22,16 L22,17 L23,17 L23,18 L24,18 L24,20 L25,20 L25,21 L26,21 L26,23 L27,23 L27,24 L28,24 L28,28 L29,28 L29,31 L30,31 L30,35 L31,35 L31,36 L32,36 L32,37 L33,37 L33,39 L34,39 L34,42 L36,42 L36,46 L37,46 L37,54 L38,54 L38,58 L39,58 L39,79 L30,79 L30,77 L29,77 L29,75 L28,75 L28,73 L30,73 L30,72 L31,72 L31,71 L32,71 L32,69 L33,69 L33,68 L34,68 L34,67 L33,67 L33,66 L32,66 L32,65 L33,65 L33,64 L32,64 L32,53 L31,53 L31,45 L30,45 L30,43 L29,43 L29,40 L28,40 L28,34 L27,34 L27,30 L26,30 L26,27 L25,27 L25,24 L24,24 L24,23 L22,23 L22,21 L21,21 L21,20 L20,20 L20,19 L19,19 L19,18 L18,18 L18,17 L16,17 L16,16 L14,16 L14,15 L13,15 L13,14 L12,14 L12,13 L11,13 L11,12 L10,12 L10,11 L9,11 L9,10 L7,10 L7,9 L6,9 L6,8 L5,8 L5,7 L4,7 L4,8 L3,8 L3,9 L2,9 L2,6 L1,6 L1,3 L0,3 Z " transform="translate(299,341)" style="fill: #BDBDBD;"/><path d="M0,0 L1,0 L1,6 L4,6 L4,7 L6,7 L6,6 L9,6 L9,5 L11,5 L11,4 L13,4 L13,3 L17,3 L17,2 L21,2 L21,1 L24,1 L24,0 L32,0 L32,1 L33,1 L33,3 L34,3 L34,5 L35,5 L35,8 L36,8 L36,9 L37,9 L37,11 L38,11 L38,14 L39,14 L39,16 L22,16 L22,15 L17,15 L17,14 L13,14 L13,13 L11,13 L11,12 L7,12 L7,14 L5,14 L5,15 L4,15 L4,16 L2,16 L2,20 L1,20 L1,16 L0,16 L0,13 L-1,13 L-1,2 L0,2 Z " transform="translate(147,234)" style="fill: #877266;"/><path d="M0,0 L1,0 L1,1 L2,1 L2,3 L3,3 L3,5 L4,5 L4,7 L5,7 L5,9 L7,9 L7,10 L8,10 L8,11 L9,11 L9,12 L10,12 L10,14 L11,14 L11,16 L12,16 L12,18 L13,18 L13,22 L14,22 L14,24 L15,24 L15,32 L17,32 L17,34 L18,34 L18,36 L19,36 L19,38 L20,38 L20,44 L21,44 L21,46 L22,46 L22,55 L16,55 L16,54 L15,54 L15,52 L14,52 L14,50 L13,50 L13,48 L12,48 L12,47 L11,47 L11,44 L10,44 L10,42 L9,42 L9,40 L8,40 L8,38 L7,38 L7,36 L6,36 L6,32 L5,32 L5,30 L4,30 L4,28 L3,28 L3,27 L2,27 L2,26 L1,26 L1,24 L0,24 L0,23 L3,23 L3,24 L7,24 L7,25 L8,25 L8,23 L7,23 L7,20 L6,20 L6,18 L5,18 L5,15 L4,15 L4,13 L3,13 L3,10 L2,10 L2,8 L1,8 L1,4 L0,4 Z " transform="translate(185,192)" style="fill: #725239;"/><path d="M0,0 L3,0 L3,1 L4,1 L4,3 L5,3 L5,4 L7,4 L7,5 L8,5 L8,6 L10,6 L10,7 L12,7 L12,8 L15,8 L15,9 L18,9 L18,10 L21,10 L21,11 L25,11 L25,12 L29,12 L29,13 L36,13 L36,14 L59,14 L59,13 L61,13 L61,20 L34,20 L34,19 L30,19 L30,18 L27,18 L27,17 L23,17 L23,16 L21,16 L21,15 L19,15 L19,14 L13,14 L13,13 L12,13 L12,12 L4,12 L4,11 L2,11 L2,9 L-1,9 L-1,8 L-2,8 L-2,7 L-4,7 L-4,6 L-5,6 L-5,5 L-7,5 L-7,4 L-6,4 L-6,2 L-3,2 L-3,1 L0,1 Z " transform="translate(172,328)" style="fill: #585858;"/><path d="M0,0 L2,0 L2,1 L1,1 L1,3 L0,3 L0,5 L-1,5 L-1,6 L-2,6 L-2,7 L-3,7 L-3,8 L-4,8 L-4,10 L-5,10 L-5,11 L-6,11 L-6,12 L-8,12 L-8,13 L-9,13 L-9,14 L-10,14 L-10,15 L-11,15 L-11,16 L-13,16 L-13,17 L-14,17 L-14,18 L-16,18 L-16,19 L-18,19 L-18,20 L-19,20 L-19,21 L-21,21 L-21,22 L-23,22 L-23,23 L-25,23 L-25,24 L-26,24 L-26,25 L-28,25 L-28,26 L-30,26 L-30,27 L-31,27 L-31,28 L-33,28 L-33,29 L-34,29 L-34,30 L-36,30 L-36,31 L-37,31 L-37,32 L-39,32 L-39,33 L-40,33 L-40,34 L-42,34 L-42,35 L-43,35 L-43,36 L-45,36 L-45,37 L-47,37 L-47,38 L-48,38 L-48,39 L-50,39 L-50,40 L-52,40 L-52,41 L-54,41 L-54,42 L-55,42 L-55,39 L-54,39 L-54,35 L-53,35 L-53,32 L-52,32 L-52,29 L-51,29 L-51,27 L-50,27 L-50,26 L-43,26 L-43,24 L-42,24 L-42,23 L-41,23 L-41,26 L-42,26 L-42,27 L-40,27 L-40,26 L-39,26 L-39,25 L-38,25 L-38,24 L-36,24 L-36,23 L-34,23 L-34,22 L-31,22 L-31,21 L-30,21 L-30,20 L-28,20 L-28,19 L-27,19 L-27,18 L-26,18 L-26,20 L-25,20 L-25,19 L-24,19 L-24,18 L-23,18 L-23,17 L-22,17 L-22,16 L-21,16 L-21,15 L-20,15 L-20,14 L-19,14 L-19,13 L-18,13 L-18,12 L-17,12 L-17,13 L-16,13 L-16,12 L-15,12 L-15,11 L-14,11 L-14,10 L-12,10 L-12,9 L-10,9 L-10,8 L-9,8 L-9,7 L-8,7 L-8,6 L-7,6 L-7,5 L-6,5 L-6,4 L-5,4 L-5,3 L-4,3 L-4,2 L-2,2 L-2,1 L0,1 Z M-27,20 L-27,21 L-26,21 L-26,20 Z M-28,21 L-28,22 L-27,22 L-27,21 Z M-29,22 L-29,23 L-28,23 L-28,22 Z M-17,11 L-16,11 L-16,12 L-17,12 Z " transform="translate(349,239)" style="fill: #210E03;"/><path d="M0,0 L4,0 L4,1 L8,1 L8,2 L9,2 L9,3 L10,3 L10,4 L11,4 L11,6 L12,6 L12,8 L14,8 L14,9 L15,9 L15,10 L16,10 L16,17 L17,17 L17,24 L-5,24 L-5,21 L-4,21 L-4,17 L-3,17 L-3,11 L-2,11 L-2,10 L-1,10 L-1,1 L0,1 Z " transform="translate(147,396)" style="fill: #939393;"/><path d="M0,0 L3,0 L3,2 L4,2 L4,3 L3,3 L3,4 L2,4 L2,5 L0,5 L0,6 L-3,6 L-3,7 L-4,7 L-4,8 L-5,8 L-5,9 L-6,9 L-6,10 L-7,10 L-7,11 L-8,11 L-8,12 L-9,12 L-9,14 L-10,14 L-10,15 L-11,15 L-11,16 L-12,16 L-12,17 L-13,17 L-13,18 L-14,18 L-14,19 L-15,19 L-15,20 L-16,20 L-16,21 L-18,21 L-18,22 L-19,22 L-19,25 L-20,25 L-20,26 L-21,26 L-21,28 L-22,28 L-22,30 L-24,30 L-24,32 L-25,32 L-25,35 L-26,35 L-26,38 L-27,38 L-27,40 L-28,40 L-28,41 L-29,41 L-29,47 L-30,47 L-30,53 L-31,53 L-31,55 L-33,55 L-33,59 L-34,59 L-34,61 L-35,61 L-35,63 L-36,63 L-36,67 L-37,67 L-37,71 L-43,71 L-43,68 L-42,68 L-42,66 L-41,66 L-41,63 L-40,63 L-40,60 L-39,60 L-39,58 L-38,58 L-38,55 L-37,55 L-37,53 L-36,53 L-36,50 L-35,50 L-35,47 L-34,47 L-34,45 L-33,45 L-33,42 L-32,42 L-32,40 L-31,40 L-31,37 L-30,37 L-30,35 L-29,35 L-29,32 L-28,32 L-28,30 L-27,30 L-27,28 L-26,28 L-26,26 L-25,26 L-25,24 L-24,24 L-24,23 L-23,23 L-23,21 L-22,21 L-22,20 L-21,20 L-21,19 L-20,19 L-20,18 L-19,18 L-19,17 L-18,17 L-18,16 L-17,16 L-17,15 L-16,15 L-16,14 L-15,14 L-15,13 L-14,13 L-14,12 L-13,12 L-13,11 L-12,11 L-12,10 L-11,10 L-11,9 L-10,9 L-10,8 L-9,8 L-9,7 L-8,7 L-8,6 L-7,6 L-7,5 L-5,5 L-5,4 L-4,4 L-4,3 L-3,3 L-3,2 L-2,2 L-2,1 L0,1 Z " transform="translate(126,349)" style="fill: #AFAFAF;"/><path d="M0,0 L22,0 L22,1 L25,1 L25,2 L26,2 L26,3 L28,3 L28,4 L29,4 L29,5 L30,5 L30,6 L31,6 L31,8 L32,8 L32,10 L33,10 L33,12 L34,12 L34,15 L35,15 L35,17 L36,17 L36,18 L37,18 L37,23 L38,23 L38,24 L39,24 L39,29 L40,29 L40,31 L41,31 L41,33 L40,33 L40,34 L41,34 L41,35 L40,35 L40,36 L39,36 L39,34 L38,34 L38,31 L37,31 L37,28 L36,28 L36,25 L35,25 L35,22 L34,22 L34,20 L33,20 L33,18 L32,18 L32,16 L31,16 L31,14 L30,14 L30,13 L28,13 L28,12 L26,12 L26,11 L24,11 L24,10 L23,10 L23,9 L22,9 L22,8 L21,8 L21,7 L14,7 L14,6 L8,6 L8,5 L3,5 L3,4 L-4,4 L-4,3 L-23,3 L-23,2 L-34,2 L-34,1 L0,1 Z M39,31 L39,32 L40,32 L40,31 Z " transform="translate(260,168)" style="fill: #452608;"/><path d="M0,0 L2,0 L2,1 L3,1 L3,3 L4,3 L4,4 L5,4 L5,8 L7,8 L7,11 L8,11 L8,13 L9,13 L9,15 L10,15 L10,17 L11,17 L11,19 L12,19 L12,21 L13,21 L13,22 L14,22 L14,23 L15,23 L15,27 L16,27 L16,28 L17,28 L17,29 L18,29 L18,30 L19,30 L19,32 L20,32 L20,33 L21,33 L21,37 L23,37 L23,38 L24,38 L24,39 L25,39 L25,40 L26,40 L26,41 L27,41 L27,42 L28,42 L28,44 L29,44 L29,45 L31,45 L31,46 L32,46 L32,48 L33,48 L33,49 L34,49 L34,50 L35,50 L35,51 L36,51 L36,54 L38,54 L38,55 L39,55 L39,56 L41,56 L41,57 L42,57 L42,58 L44,58 L44,59 L46,59 L46,60 L47,60 L47,61 L48,61 L48,62 L49,62 L49,63 L50,63 L50,65 L51,65 L51,66 L52,66 L52,69 L49,69 L49,66 L48,66 L48,65 L47,65 L47,64 L46,64 L46,63 L45,63 L45,62 L43,62 L43,61 L41,61 L41,60 L39,60 L39,59 L37,59 L37,58 L35,58 L35,57 L34,57 L34,56 L33,56 L33,55 L31,55 L31,54 L30,54 L30,53 L29,53 L29,52 L23,52 L23,54 L20,54 L20,55 L16,55 L16,56 L14,56 L14,55 L15,55 L15,54 L16,54 L16,53 L18,53 L18,52 L19,52 L19,51 L21,51 L21,50 L25,50 L25,47 L24,47 L24,46 L23,46 L23,45 L22,45 L22,43 L21,43 L21,42 L20,42 L20,40 L19,40 L19,38 L18,38 L18,36 L17,36 L17,34 L16,34 L16,32 L15,32 L15,31 L14,31 L14,29 L13,29 L13,26 L12,26 L12,25 L11,25 L11,21 L10,21 L10,20 L9,20 L9,18 L8,18 L8,16 L7,16 L7,14 L6,14 L6,12 L5,12 L5,10 L4,10 L4,8 L3,8 L3,6 L2,6 L2,3 L1,3 L1,1 L0,1 Z " transform="translate(183,242)" style="fill: #5C3B1F;"/><path d="M0,0 L1,0 L1,1 L4,1 L4,2 L9,2 L9,3 L13,3 L13,4 L14,4 L14,9 L13,9 L13,10 L11,10 L11,29 L10,29 L10,34 L9,34 L9,36 L8,36 L8,39 L7,39 L7,42 L5,42 L5,45 L4,45 L4,46 L3,46 L3,47 L1,47 L1,48 L0,48 L0,50 L-2,50 L-2,51 L-3,51 L-3,52 L-5,52 L-5,53 L-8,53 L-8,50 L-7,50 L-7,51 L-6,51 L-6,49 L-5,49 L-5,50 L-4,50 L-4,49 L-3,49 L-3,48 L-4,48 L-4,47 L-2,47 L-2,46 L-1,46 L-1,45 L0,45 L0,44 L1,44 L1,42 L2,42 L2,41 L3,41 L3,39 L4,39 L4,37 L5,37 L5,35 L6,35 L6,32 L7,32 L7,16 L6,16 L6,13 L5,13 L5,10 L4,10 L4,8 L3,8 L3,7 L2,7 L2,5 L0,5 L0,4 L-1,4 L-1,2 L0,2 Z " transform="translate(288,217)" style="fill: #444342;"/><path d="M0,0 L4,0 L4,1 L3,1 L3,2 L1,2 L1,19 L6,19 L6,18 L15,18 L15,20 L11,20 L11,21 L8,21 L8,22 L0,22 L0,23 L-6,23 L-6,22 L-8,22 L-8,19 L-9,19 L-9,16 L-10,16 L-10,10 L-11,10 L-11,3 L-8,3 L-8,2 L-3,2 L-3,1 L0,1 Z " transform="translate(243,308)" style="fill: #232322;"/><path d="M0,0 L1,0 L1,3 L2,3 L2,7 L3,7 L3,10 L4,10 L4,13 L5,13 L5,18 L6,18 L6,21 L7,21 L7,23 L9,23 L9,24 L10,24 L10,25 L11,25 L11,26 L12,26 L12,30 L13,30 L13,31 L14,31 L14,35 L16,35 L16,49 L15,49 L15,50 L11,50 L11,49 L9,49 L9,48 L7,48 L7,44 L6,44 L6,42 L5,42 L5,34 L6,34 L6,36 L7,36 L7,38 L8,38 L8,40 L9,40 L9,34 L8,34 L8,31 L7,31 L7,28 L6,28 L6,25 L5,25 L5,22 L4,22 L4,18 L3,18 L3,15 L2,15 L2,11 L1,11 L1,7 L0,7 Z " transform="translate(226,175)" style="fill: #714D30;"/><path d="M0,0 L1,0 L1,1 L4,1 L4,2 L8,2 L8,13 L7,13 L7,14 L6,14 L6,20 L5,20 L5,22 L4,22 L4,23 L2,23 L2,24 L0,24 L0,25 L-2,25 L-2,23 L-3,23 L-3,19 L-4,19 L-4,15 L-5,15 L-5,6 L-4,6 L-4,4 L-3,4 L-3,3 L-2,3 L-2,2 L-1,2 L-1,1 L0,1 Z " transform="translate(126,222)" style="fill: #4A2808;"/><path d="M0,0 L8,0 L8,1 L5,1 L5,2 L4,2 L4,3 L13,3 L13,4 L14,4 L14,5 L12,5 L12,6 L11,6 L11,5 L10,5 L10,6 L9,6 L9,7 L7,7 L7,8 L6,8 L6,7 L5,7 L5,8 L3,8 L3,9 L1,9 L1,10 L-10,10 L-10,11 L-11,11 L-11,10 L-12,10 L-12,11 L-19,11 L-19,10 L-21,10 L-21,12 L-23,12 L-23,13 L-24,13 L-24,14 L-25,14 L-25,15 L-26,15 L-26,17 L-27,17 L-27,16 L-29,16 L-29,17 L-30,17 L-30,18 L-31,18 L-31,19 L-33,19 L-33,18 L-32,18 L-32,17 L-31,17 L-31,16 L-30,16 L-30,15 L-29,15 L-29,14 L-28,14 L-28,12 L-27,12 L-27,11 L-25,11 L-25,10 L-23,10 L-23,9 L-22,9 L-22,8 L-18,8 L-18,7 L-16,7 L-16,6 L-14,6 L-14,5 L-12,5 L-12,4 L-9,4 L-9,3 L-6,3 L-6,2 L-5,2 L-5,1 L0,1 Z M-12,11 L-11,11 L-11,12 L-12,12 Z " transform="translate(161,26)" style="fill: #5F4538;"/><path d="M0,0 L1,0 L1,1 L2,1 L2,2 L3,2 L3,3 L6,3 L6,4 L7,4 L7,7 L8,7 L8,8 L9,8 L9,10 L10,10 L10,11 L11,11 L11,12 L14,12 L14,13 L15,13 L15,16 L16,16 L16,17 L17,17 L17,18 L18,18 L18,19 L19,19 L19,20 L20,20 L20,25 L21,25 L21,26 L23,26 L23,27 L24,27 L24,28 L27,28 L27,30 L29,30 L29,31 L31,31 L31,32 L32,32 L32,33 L34,33 L34,34 L35,34 L35,36 L37,36 L37,38 L38,38 L38,39 L39,39 L39,41 L40,41 L40,42 L41,42 L41,44 L42,44 L42,45 L37,45 L37,43 L36,43 L36,42 L35,42 L35,40 L34,40 L34,39 L33,39 L33,38 L32,38 L32,37 L31,37 L31,36 L29,36 L29,35 L27,35 L27,34 L26,34 L26,33 L24,33 L24,32 L23,32 L23,31 L21,31 L21,28 L20,28 L20,27 L19,27 L19,26 L18,26 L18,25 L17,25 L17,23 L16,23 L16,22 L14,22 L14,21 L13,21 L13,19 L12,19 L12,18 L11,18 L11,17 L10,17 L10,16 L9,16 L9,15 L8,15 L8,14 L6,14 L6,10 L5,10 L5,9 L4,9 L4,7 L3,7 L3,6 L2,6 L2,5 L1,5 L1,4 L0,4 Z " transform="translate(198,265)" style="fill: #7E593D;"/><path d="M0,0 L3,0 L3,1 L5,1 L5,2 L6,2 L6,3 L10,3 L10,9 L9,9 L9,11 L8,11 L8,13 L7,13 L7,15 L6,15 L6,16 L5,16 L5,18 L4,18 L4,19 L3,19 L3,20 L2,20 L2,21 L0,21 L0,22 L1,22 L1,23 L0,23 L0,24 L-1,24 L-1,23 L-2,23 L-2,25 L-3,25 L-3,24 L-4,24 L-4,4 L-3,4 L-3,3 L-2,3 L-2,2 L-1,2 L-1,1 L0,1 Z " transform="translate(284,243)" style="fill: #9F8F86;"/><path d="M0,0 L1,0 L1,6 L0,6 L0,8 L-1,8 L-1,10 L-2,10 L-2,11 L-3,11 L-3,13 L-4,13 L-4,15 L-5,15 L-5,17 L-7,17 L-7,19 L-8,19 L-8,35 L-7,35 L-7,54 L-8,54 L-8,57 L-9,57 L-9,61 L-10,61 L-10,64 L-11,64 L-11,69 L-12,69 L-12,72 L-13,72 L-13,73 L-15,73 L-15,75 L-16,75 L-16,78 L-17,78 L-17,85 L-16,85 L-16,88 L-18,88 L-18,89 L-19,89 L-19,83 L-20,83 L-20,75 L-19,75 L-19,74 L-18,74 L-18,73 L-17,73 L-17,72 L-16,72 L-16,71 L-15,71 L-15,68 L-14,68 L-14,67 L-13,67 L-13,66 L-12,66 L-12,63 L-11,63 L-11,54 L-10,54 L-10,47 L-9,47 L-9,29 L-10,29 L-10,21 L-9,21 L-9,17 L-8,17 L-8,15 L-7,15 L-7,11 L-6,11 L-6,10 L-5,10 L-5,9 L-4,9 L-4,7 L-3,7 L-3,5 L-2,5 L-2,4 L-1,4 L-1,3 L0,3 Z " transform="translate(286,212)" style="fill: #785335;"/><path d="M0,0 L1,0 L1,2 L3,2 L3,4 L4,4 L4,5 L7,5 L7,6 L9,6 L9,7 L11,7 L11,8 L14,8 L14,9 L15,9 L15,10 L22,10 L22,12 L25,12 L25,13 L20,13 L20,12 L18,12 L18,11 L13,11 L13,10 L12,10 L12,9 L10,9 L10,8 L6,8 L6,7 L-1,7 L-1,8 L-7,8 L-7,9 L-9,9 L-9,10 L-16,10 L-16,11 L-18,11 L-18,12 L-20,12 L-20,13 L-24,13 L-24,15 L-25,15 L-25,16 L-27,16 L-27,17 L-28,17 L-28,18 L-29,18 L-29,19 L-30,19 L-30,17 L-31,17 L-31,14 L-29,14 L-29,13 L-28,13 L-28,12 L-26,12 L-26,11 L-24,11 L-24,10 L-22,10 L-22,9 L-20,9 L-20,8 L-18,8 L-18,7 L-16,7 L-16,6 L-13,6 L-13,5 L-11,5 L-11,4 L-8,4 L-8,3 L-5,3 L-5,2 L-3,2 L-3,1 L0,1 Z " transform="translate(161,332)" style="fill: #B1B1B1;"/><path d="M0,0 L1,0 L1,3 L2,3 L2,4 L3,4 L3,7 L4,7 L4,11 L5,11 L5,13 L6,13 L6,16 L7,16 L7,17 L8,17 L8,21 L7,21 L7,19 L6,19 L6,17 L5,17 L5,15 L4,15 L4,13 L3,13 L3,12 L-5,12 L-5,13 L-8,13 L-8,14 L-11,14 L-11,15 L-13,15 L-13,16 L-16,16 L-16,17 L-21,17 L-21,15 L-20,15 L-20,13 L-19,13 L-19,12 L-18,12 L-18,11 L-17,11 L-17,10 L-15,10 L-15,9 L-14,9 L-14,8 L-11,8 L-11,7 L-9,7 L-9,6 L-8,6 L-8,5 L-5,5 L-5,4 L-2,4 L-2,3 L-3,3 L-3,2 L-1,2 L-1,1 L0,1 Z " transform="translate(175,220)" style="fill: #6B4D38;"/><path d="M0,0 L2,0 L2,11 L3,11 L3,14 L2,14 L2,22 L3,22 L3,29 L-1,29 L-1,28 L-2,28 L-2,27 L-3,27 L-3,25 L-4,25 L-4,23 L-5,23 L-5,21 L-6,21 L-6,19 L-7,19 L-7,16 L-8,16 L-8,14 L-9,14 L-9,12 L-7,12 L-7,11 L-5,11 L-5,10 L-3,10 L-3,9 L-2,9 L-2,7 L-1,7 L-1,1 L0,1 Z " transform="translate(133,235)" style="fill: #6D492B;"/><path d="M0,0 L2,0 L2,1 L3,1 L3,2 L5,2 L5,3 L7,3 L7,8 L8,8 L8,13 L7,13 L7,12 L6,12 L6,13 L5,13 L5,21 L-5,21 L-5,18 L-4,18 L-4,13 L-3,13 L-3,10 L-2,10 L-2,8 L-1,8 L-1,1 L0,1 Z " transform="translate(149,399)" style="fill: #626262;"/><path d="M0,0 L1,0 L1,1 L2,1 L2,4 L3,4 L3,7 L4,7 L4,9 L5,9 L5,12 L6,12 L6,15 L7,15 L7,17 L8,17 L8,20 L9,20 L9,23 L10,23 L10,25 L11,25 L11,28 L12,28 L12,30 L13,30 L13,33 L14,33 L14,36 L15,36 L15,38 L16,38 L16,41 L17,41 L17,43 L18,43 L18,46 L19,46 L19,48 L20,48 L20,51 L21,51 L21,53 L22,53 L22,56 L23,56 L23,58 L24,58 L24,60 L25,60 L25,63 L26,63 L26,65 L27,65 L27,67 L28,67 L28,70 L29,70 L29,72 L30,72 L30,74 L27,74 L27,72 L26,72 L26,68 L25,68 L25,67 L24,67 L24,66 L22,66 L22,60 L21,60 L21,58 L20,58 L20,55 L19,55 L19,54 L18,54 L18,50 L17,50 L17,49 L16,49 L16,47 L15,47 L15,41 L14,41 L14,38 L13,38 L13,37 L12,37 L12,33 L11,33 L11,32 L10,32 L10,29 L9,29 L9,25 L8,25 L8,22 L7,22 L7,20 L6,20 L6,17 L5,17 L5,14 L4,14 L4,10 L3,10 L3,9 L2,9 L2,6 L1,6 L1,2 L0,2 Z " transform="translate(299,346)" style="fill: #9A9A9A;"/><path d="M0,0 L1,0 L1,1 L2,1 L2,3 L3,3 L3,5 L4,5 L4,8 L5,8 L5,9 L6,9 L6,12 L8,12 L8,13 L10,13 L10,11 L11,11 L11,14 L12,14 L12,17 L13,17 L13,20 L14,20 L14,22 L15,22 L15,25 L16,25 L16,28 L17,28 L17,31 L18,31 L18,34 L16,34 L16,35 L19,35 L19,38 L20,38 L20,41 L21,41 L21,42 L19,42 L19,41 L18,41 L18,40 L16,40 L16,36 L15,36 L15,35 L14,35 L14,33 L13,33 L13,29 L12,29 L12,28 L11,28 L11,26 L10,26 L10,24 L9,24 L9,22 L8,22 L8,20 L7,20 L7,17 L6,17 L6,15 L5,15 L5,13 L3,13 L3,7 L2,7 L2,4 L1,4 L1,2 L0,2 Z " transform="translate(200,191)" style="fill: #78563B;"/></svg>